<svg width="500" height="500" viewBox="0 0 500 500" fill="none" xmlns="http://www.w3.org/2000/svg">
<rect width="500" height="500" fill="black"/>
<path d="M344.525 108.8C343.458 118.133 342.658 127.2 342.125 136C341.858 144.8 341.725 151.467 341.725 156C341.725 160.8 341.858 165.467 342.125 170C342.392 174.267 342.658 177.867 342.925 180.8H333.725C332.125 165.067 329.858 152.667 326.925 143.6C323.992 134.267 318.925 127.733 311.725 124C304.792 120 294.258 118 280.125 118H246.925C237.858 118 230.925 118.8 226.125 120.4C221.592 121.733 218.525 124.8 216.925 129.6C215.325 134.133 214.525 141.333 214.525 151.2V349.6C214.525 359.2 215.325 366.4 216.925 371.2C218.525 376 221.592 379.2 226.125 380.8C230.925 382.133 237.858 382.8 246.925 382.8H276.125C292.925 382.8 305.592 380.533 314.125 376C322.925 371.467 329.192 364.133 332.925 354C336.925 343.6 339.858 329.6 341.725 312H350.925C350.125 319.2 349.725 328.8 349.725 340.8C349.725 345.867 349.858 353.2 350.125 362.8C350.658 372.133 351.458 381.867 352.525 392C338.925 391.467 323.592 391.2 306.525 391.2C289.458 390.933 274.258 390.8 260.925 390.8C255.058 390.8 247.458 390.8 238.125 390.8C229.058 390.8 219.192 390.933 208.525 391.2C197.858 391.2 187.058 391.333 176.125 391.6C165.192 391.6 154.792 391.733 144.925 392V384C153.992 383.467 160.792 382.4 165.325 380.8C170.125 379.2 173.325 376 174.925 371.2C176.525 366.4 177.325 359.2 177.325 349.6V151.2C177.325 141.333 176.525 134.133 174.925 129.6C173.325 124.8 170.125 121.6 165.325 120C160.792 118.133 153.992 117.067 144.925 116.8V108.8C154.792 109.067 165.192 109.333 176.125 109.6C187.058 109.6 197.858 109.733 208.525 110C219.192 110 229.058 110 238.125 110C247.458 110 255.058 110 260.925 110C273.192 110 287.058 110 302.525 110C318.258 109.733 332.258 109.333 344.525 108.8ZM275.725 245.6C275.725 245.6 275.725 246.933 275.725 249.6C275.725 252.267 275.725 253.6 275.725 253.6H202.525C202.525 253.6 202.525 252.267 202.525 249.6C202.525 246.933 202.525 245.6 202.525 245.6H275.725ZM287.325 192.8C286.258 208 285.725 219.6 285.725 227.6C285.992 235.6 286.125 242.933 286.125 249.6C286.125 256.267 286.258 263.6 286.525 271.6C286.792 279.6 287.458 291.2 288.525 306.4H279.325C278.258 297.867 276.925 289.6 275.325 281.6C273.992 273.333 270.792 266.667 265.725 261.6C260.925 256.267 252.658 253.6 240.925 253.6V245.6C249.725 245.6 256.392 243.867 260.925 240.4C265.725 236.667 269.192 232 271.325 226.4C273.458 220.8 274.925 215.067 275.725 209.2C276.525 203.067 277.325 197.6 278.125 192.8H287.325Z" fill="white"/>
</svg>
